<?xml version="1.0" encoding="iso-8859-1"?>
<!-- Generator: Adobe Illustrator 19.0.0, SVG Export Plug-In . SVG Version: 6.00 Build 0)  -->
<svg version="1.1" id="Capa_1" xmlns="http://www.w3.org/2000/svg" xmlns:xlink="http://www.w3.org/1999/xlink" x="0px" y="0px"
	 viewBox="0 0 512 512" style="enable-background:new 0 0 512 512;" xml:space="preserve">
<path style="fill:#5A9BCC;" d="M338.38,485.407c-4.204,0-7.611-3.407-7.611-7.612V378.03c0-4.204,3.408-7.612,7.611-7.612
	c4.204,0,7.612,3.407,7.612,7.612v99.765C345.991,482,342.583,485.407,338.38,485.407z"/>
<path style="fill:#FEC007;" d="M433.485,163.287c0.236,22.011-6.992,42.315-19.314,58.55c-17.38,22.919-28.086,26.297-30.292,54.782
	c-0.291,3.641-0.427,7.301-0.427,10.978v22.537h-90.441v-21.212c0-4.113-0.163-8.218-0.499-12.304
	c-1.607-20.022-7.155-27.559-16.445-38.283c-3.796-4.395-8.227-9.316-13.276-15.854c-12.431-16.091-19.813-36.267-19.813-58.16
	c0-29.666,13.557-56.171,34.823-73.642c16.781-13.784,38.356-21.947,61.856-21.602C391.07,69.823,432.931,111.865,433.485,163.287z"
	/>
<g>
	<path style="fill:#FE9700;" d="M302.763,157.312l-2.951,1.689c-4.177,2.397-8.399,4.604-12.658,6.656
		c-1.753,6.738-4.213,13.366-7.364,19.823c-0.645,1.317-1.298,2.588-1.97,3.832c5.457,7.473,8.381,16.908,7.473,27.032
		c-0.736,8.318-4.095,15.927-9.226,21.993c-3.796-4.395-8.227-9.316-13.276-15.854c-12.431-16.091-19.813-36.267-19.813-58.16
		c0-29.666,13.557-56.171,34.823-73.642c2.424,3.877,4.422,7.973,5.957,12.249c3.532,9.852,5.648,19.759,6.374,29.593
		c2.252,0.572,4.177,1.017,5.666,1.326l3.332,0.699C310.237,136.845,312.597,151.664,302.763,157.312z"/>
	<path style="fill:#FE9700;" d="M372.877,310.133v-30.99c0-3.68,0.143-7.345,0.428-10.986c2.205-28.484,12.905-31.862,30.284-54.786
		c12.326-16.229,19.552-36.534,19.322-58.545c-0.294-27.183-12.128-51.74-30.815-68.96c24.7,17.038,41.048,45.41,41.389,77.415
		c0.23,22.011-6.996,42.325-19.314,58.553c-17.379,22.915-28.087,26.302-30.292,54.786c-0.286,3.641-0.428,7.305-0.428,10.978
		v22.534L372.877,310.133L372.877,310.133z"/>
	<path style="fill:#FE9700;" d="M292.512,276.62h91.367c-0.287,3.64-0.426,7.303-0.426,10.982v22.53h-90.445v-21.206
		C293.007,284.814,292.845,280.709,292.512,276.62z"/>
</g>
<g>
	<path style="fill:#E2780E;" d="M360.451,317.743c-4.204,0-7.612-3.407-7.612-7.612v-88.717c0-4.204,3.408-7.611,7.612-7.611
		s7.611,3.407,7.611,7.611v88.717C368.063,314.336,364.655,317.743,360.451,317.743z"/>
	<path style="fill:#E2780E;" d="M316.308,317.743c-4.204,0-7.612-3.407-7.612-7.612v-88.717c0-4.204,3.408-7.611,7.612-7.611
		s7.611,3.407,7.611,7.611v88.717C323.919,314.336,320.511,317.743,316.308,317.743z"/>
</g>
<path style="fill:#D2E3F1;" d="M284.091,296.928l16.457,63.601c2.666,10.305,11.964,17.503,22.608,17.503h30.448
	c10.644,0,19.942-7.198,22.608-17.503l16.457-63.601c1.139-4.4-2.183-8.691-6.728-8.691h-95.122
	C286.274,288.237,282.952,292.528,284.091,296.928z"/>
<g>
	<path style="fill:#FCE790;" d="M401.946,158.504c-3.625,0-6.834-2.598-7.486-6.286c-0.249-1.368-6.148-31.902-36.103-40.478
		c-4.042-1.157-6.38-5.371-5.223-9.412s5.373-6.384,9.412-5.222c39.306,11.252,46.616,50.803,46.908,52.482
		c0.721,4.141-2.053,8.082-6.194,8.803C402.818,158.468,402.379,158.504,401.946,158.504z"/>
	<path style="fill:#FCE790;" d="M338.232,49.3c-4.204,0-7.612-3.407-7.612-7.611V7.611c0-4.204,3.408-7.611,7.612-7.611
		s7.611,3.407,7.611,7.611v34.077C345.844,45.893,342.436,49.3,338.232,49.3z"/>
	<path style="fill:#FCE790;" d="M407.506,65.221c-1.948,0-3.896-0.743-5.382-2.229c-2.973-2.973-2.973-7.792,0-10.765l24.097-24.096
		c2.972-2.971,7.792-2.971,10.764,0c2.973,2.973,2.973,7.792,0,10.765l-24.097,24.096C411.401,64.478,409.453,65.221,407.506,65.221
		z"/>
	<path style="fill:#FCE790;" d="M268.959,65.221c-1.948,0-3.896-0.743-5.382-2.229l-24.096-24.096
		c-2.973-2.973-2.973-7.792,0-10.765c2.972-2.971,7.792-2.971,10.764,0l24.096,24.096c2.973,2.973,2.973,7.792,0,10.765
		C272.855,64.478,270.907,65.221,268.959,65.221z"/>
</g>
<g>
	<path style="fill:#5A9BCC;" d="M381.203,359.426h-85.647c-4.204,0-7.611-3.407-7.611-7.612s3.408-7.611,7.611-7.611h85.647
		c4.204,0,7.611,3.407,7.611,7.611S385.407,359.426,381.203,359.426z"/>
	<path style="fill:#5A9BCC;" d="M386.859,339.309H289.9c-4.204,0-7.611-3.407-7.611-7.611s3.408-7.612,7.611-7.612h96.959
		c4.204,0,7.611,3.407,7.611,7.612S391.063,339.309,386.859,339.309z"/>
	<path style="fill:#5A9BCC;" d="M393.205,319.721h-109.65c-4.204,0-7.612-3.407-7.612-7.611s3.408-7.612,7.612-7.612h109.65
		c4.204,0,7.612,3.407,7.612,7.612S397.408,319.721,393.205,319.721z"/>
</g>
<g>
	<path style="fill:#E2780E;" d="M360.454,262.833c-0.725,0-1.463-0.104-2.193-0.324l-19.881-5.974l-19.883,5.974
		c-4.027,1.211-8.271-1.074-9.48-5.099c-1.21-4.026,1.073-8.271,5.099-9.48l22.073-6.632c1.429-0.43,2.953-0.43,4.381,0
		l22.071,6.632c4.026,1.21,6.309,5.454,5.099,9.48C366.751,260.705,363.727,262.833,360.454,262.833z"/>
	<path style="fill:#E2780E;" d="M360.454,244.842c-0.725,0-1.463-0.104-2.193-0.324l-19.881-5.974l-19.883,5.974
		c-4.027,1.214-8.271-1.073-9.48-5.099c-1.21-4.026,1.073-8.271,5.099-9.48l22.073-6.632c1.429-0.43,2.953-0.43,4.381,0
		l22.071,6.632c4.026,1.21,6.309,5.454,5.099,9.48C366.751,242.715,363.727,244.842,360.454,244.842z"/>
</g>
<path style="fill:#F9A13E;" d="M267.55,179.505c-10.352,21.23-25.688,33.207-25.688,33.207H107.035c0,0-18.588-8.472-28.376-31.282
	c-6.383-14.874-9.026-35.849-0.336-64.544c22.011-72.698,169.495-73.806,192.613-9.362
	C281.515,137.036,276.312,161.571,267.55,179.505z"/>
<g>
	<path style="fill:#E2780E;" d="M267.55,179.505c-10.352,21.23-25.688,33.207-25.688,33.207h-35.977
		c0-21.938,17.852-39.781,39.79-39.781C253.747,172.931,261.275,175.346,267.55,179.505z"/>
	<path style="fill:#E2780E;" d="M143.003,212.712h-35.967c0,0-18.588-8.472-28.376-31.282c6.765-5.321,15.3-8.499,24.562-8.499
		C125.16,172.931,143.003,190.774,143.003,212.712z"/>
</g>
<path style="fill:#D2E3F1;" d="M263.661,398.629v105.14c0,4.547-3.694,8.23-8.241,8.23H94.199c-4.547,0-8.241-3.684-8.241-8.23
	v-105.14c0-18.176,5.47-35.094,14.837-49.17c15.933-23.91,43.132-39.671,74.024-39.671c24.529,0,46.745,9.946,62.82,26.011
	c4.161,4.161,7.926,8.748,11.184,13.67C258.191,363.545,263.661,380.453,263.661,398.629z"/>
<g>
	<path style="fill:#A5C6E3;" d="M181.975,348.048V512h-15.223V348.048c0-4.212,3.41-7.611,7.611-7.611
		C178.565,340.437,181.975,343.837,181.975,348.048z"/>
	<path style="fill:#A5C6E3;" d="M248.822,349.47l-33.859,31.821c-5.133,4.824-13.14,4.747-18.174-0.165l-21.974-21.445
		l-21.974,21.445c-5.034,4.912-13.052,4.99-18.174,0.165l-33.87-31.832c15.927-23.912,43.133-39.674,74.017-39.674
		c24.529,0,46.746,9.946,62.827,26.016C241.806,339.965,245.562,344.547,248.822,349.47z"/>
</g>
<path style="fill:#5A9BCC;" d="M238.411,336.589l-28.992,27.245c-1.906,1.791-4.885,1.763-6.757-0.064l-27.846-27.181L146.97,363.77
	c-1.872,1.827-4.851,1.855-6.757,0.064l-28.992-27.245c16.126-16.546,38.667-26.813,63.595-26.813
	c24.931,0,47.467,10.265,63.595,26.81L238.411,336.589z"/>
<path style="fill:#FCCE99;" d="M174.812,336.589L174.812,336.589c-10.868,0-19.678-8.81-19.678-19.678v-33.939h39.357v33.939
	C194.491,327.778,185.68,336.589,174.812,336.589z"/>
<path style="fill:#5A9BCC;" d="M238.411,432.493h-34.667c-4.204,0-7.611-3.407-7.611-7.611s3.408-7.612,7.611-7.612h34.667
	c4.204,0,7.611,3.407,7.611,7.612S242.615,432.493,238.411,432.493z"/>
<g>
	<circle style="fill:#FCCE99;" cx="245.669" cy="212.72" r="26.16"/>
	<circle style="fill:#FCCE99;" cx="103.219" cy="212.72" r="26.16"/>
</g>
<path style="fill:#FEE6CC;" d="M245.672,142.894l-3.393,40.654l-4.571,54.731c-2.743,32.9-30.246,58.201-63.267,58.201
	c-33.01,0-60.514-25.3-63.256-58.201l-4.791-57.385l-3.172-38L245.672,142.894L245.672,142.894z"/>
<path style="fill:#FCCE99;" d="M245.672,142.894l-3.393,40.654c-10.882,2.049-21.93,3.073-33.12,3.073
	c-36.832,0-66.296-11.202-81.749-18.615c-5.111,4.241-12.116,9.043-21.016,12.887l-3.172-38h142.45V142.894z"/>
<path style="fill:#F9A13E;" d="M232.455,122.531c22.029,16.657,60.58,24.657,60.58,24.657
	c-89.217,51.227-168.522,0.541-168.522,0.541s-10.146,13.203-29.698,19.95v-45.148C94.815,122.531,232.455,122.531,232.455,122.531z
	"/>
<path style="fill:#E2780E;" d="M208.922,177.658c-13.192,0-25.064-1.496-35.114-3.529c-22.667-4.586-39.581-12.427-47.824-16.806
	c-5.212,5.046-14.836,12.772-28.687,17.551c-3.973,1.371-8.306-0.738-9.678-4.713c-1.371-3.974,0.739-8.307,4.713-9.678
	c16.96-5.852,26.078-17.305,26.167-17.42c2.419-3.086,6.809-3.86,10.113-1.747c0.18,0.114,19.417,12.173,48.805,18.011
	c32.661,6.49,64.329,3.135,94.393-9.953c-13.468-4.232-31.124-11.076-43.947-20.771c-3.353-2.535-4.016-7.309-1.481-10.662
	c2.535-3.353,7.308-4.016,10.662-1.481c20.426,15.444,57.167,23.199,57.536,23.276c3.096,0.642,5.471,3.132,5.97,6.253
	c0.499,3.122-0.985,6.227-3.726,7.801C265.057,172.03,234.512,177.657,208.922,177.658z"/>
<g>
	<path style="fill:#1D71B8;" d="M140.668,216.244c-4.204,0-7.611-3.407-7.611-7.611v-1.401c0-4.204,3.408-7.611,7.611-7.611
		c4.204,0,7.611,3.407,7.611,7.611v1.401C148.28,212.836,144.872,216.244,140.668,216.244z"/>
	<path style="fill:#1D71B8;" d="M208.055,216.244c-4.204,0-7.611-3.407-7.611-7.611v-1.401c0-4.204,3.408-7.611,7.611-7.611
		c4.204,0,7.611,3.407,7.611,7.611v1.401C215.667,212.836,212.259,216.244,208.055,216.244z"/>
</g>
<path style="fill:#E8A96B;" d="M175.494,262.158c-7.731,0-14.954-2.268-20.337-6.384c-3.339-2.554-3.976-7.331-1.423-10.67
	c2.555-3.339,7.331-3.975,10.67-1.423c2.704,2.067,6.746,3.254,11.091,3.254c4.344,0,8.387-1.186,11.091-3.254
	c3.339-2.552,8.116-1.916,10.67,1.423c2.553,3.339,1.916,8.116-1.423,10.67C190.448,259.89,183.226,262.158,175.494,262.158z"/>
<circle style="fill:#FEC007;" cx="338.119" cy="488.24" r="15.311"/>
<g>
</g>
<g>
</g>
<g>
</g>
<g>
</g>
<g>
</g>
<g>
</g>
<g>
</g>
<g>
</g>
<g>
</g>
<g>
</g>
<g>
</g>
<g>
</g>
<g>
</g>
<g>
</g>
<g>
</g>
</svg>
